<svg xmlns="http://www.w3.org/2000/svg" width="43" height="24" viewBox="0 0 43 24"><g fill="none" transform="translate(2 3)"><path fill="#93CFA9" d="M10.9678934,9.76850658 L10.9678934,6.59594409 L5.12361209,6.59594409 L5.12361209,0.320988678 L0,0.320988678 L0,17.6708 L5.12361209,17.6708 L5.12361209,10.4328786 L10.9745322,10.4328786 L10.9745322,17.6708 L16.0715894,17.6708 C15.066193,17.4214739 14.1699666,17.0310621 13.4043016,16.5010576 C11.2688485,15.0013686 10.9678934,12.3341766 10.9678934,9.76776012"/><path fill="#12C2F2" d="M27.0667754,1.22274292 L27.0667754,0.320988678 L22.2691979,0.320988678 L22.2691979,9.12802221 C22.2920646,5.5598225 24.1236121,2.73661511 27.0660377,1.22274292 M22.2691979,9.26910792 L22.2691979,9.69236514 C22.2691979,12.2580351 21.8679245,13.7308505 19.0295054,13.7308505 C16.6004737,13.7308505 16.1320755,12.3073031 16.0738023,10.2365529 L16.0738023,17.6715464 L16.0708517,17.6715464 C16.9449491,17.8880272 17.9016616,18 18.9299246,18 C21.5581178,18 23.7193882,17.2303736 25.1762171,15.792643 C23.3594223,14.2586157 22.2883764,11.9997512 22.2699355,9.26910792"/><path fill="#00B7B1" d="M16.0730647,10.2365529 C16.0686389,10.0588894 16.0656883,9.87823998 16.0656883,9.69161859 L16.0656883,0.320988678 L10.9760075,0.320988678 L10.9760075,6.59669058 L10.9686311,6.59669058 L10.9686311,9.76850658 C10.9686311,12.3341766 11.2703238,15.0013686 13.4043016,16.5010576 C14.1707043,17.0310621 15.0669306,17.4214739 16.0715894,17.6708 L16.07454,17.6708 L16.07454,10.2358064 L16.0730647,10.2365529 Z"/><path fill="#65C6C1" d="M32.7959857,4.06535893 C34.2048684,4.06535893 35.5658048,4.34454444 36.7829024,4.85290093 L38,1.11823498 C36.7836401,0.584497989 34.8259569,0 32.4625747,0 C30.4289153,0 28.5981055,0.434454444 27.067513,1.22274292 L27.067513,9.14593788 C27.067513,6.12267242 29.4544996,4.06535893 32.7967234,4.06535893"/><path fill="#65C2BF" d="M22.2691979,9.29299545 L22.2677227,9.20864268 C22.2677227,9.18176913 22.2691979,9.15564222 22.2699355,9.12876867 L22.2699355,9.29299545"/><path fill="#65C6C1" d="M33.3455237,13.7950484 C32.9634288,13.8973168 32.581334,13.9219508 32.1276885,13.9219508 C29.2391102,13.9219508 27.0667754,11.9661593 27.0667754,9.14593788 L27.0667754,9.51395517 C27.0667754,12.0796251 26.7901623,14.1630656 25.233015,15.7381495 L25.1762171,15.792643 C26.8322075,17.1908099 29.1070735,17.9873097 31.7699355,17.9873097 C33.3211818,17.9873097 34.9934001,17.7335048 36.4730958,17.2251482 C36.7356938,17.1236263 37.141393,16.9713433 37.9055827,16.6406503 L37.9055827,8.89213288 L33.3455237,8.89213288 L33.3455237,13.7957948 L33.3455237,13.7950484 Z"/><path fill="#00B3BE" d="M27.0667754,9.51395517 L27.0667754,1.22199643 C24.1236121,2.73736159 22.2928022,5.56056899 22.2699355,9.12876867 L22.2699355,9.26910792 C22.2883764,11.9990047 23.3594223,14.2586157 25.1762171,15.792643 L25.233015,15.7381495 C26.7901623,14.1630656 27.0667754,12.0803716 27.0667754,9.51395517"/></g></svg>