<svg xmlns="http://www.w3.org/2000/svg" xmlns:xlink="http://www.w3.org/1999/xlink" width="55" height="25"><defs><path id="a" d="M0 24.113h104.967V0H0z"/></defs><g fill="none" fill-rule="evenodd"><path fill="#93CFA9" d="M14.869 13.086v-4.25H6.946V.43H0v23.242h6.946v-9.696h7.932v9.696h6.91c-1.363-.334-2.578-.857-3.616-1.567-2.895-2.009-3.303-5.582-3.303-9.02"/><path fill="#12C2F2" d="M36.694 1.638V.43H30.19v11.798c.031-4.78 2.514-8.562 6.503-10.59M30.19 12.417v.567c0 3.437-.544 5.41-4.392 5.41-3.293 0-3.928-1.907-4.007-4.681v9.96h-.004c1.185.29 2.482.44 3.876.44 3.563 0 6.493-1.031 8.468-2.957-2.463-2.055-3.915-5.081-3.94-8.739"/><path fill="#00B7B1" d="M21.79 13.713c-.006-.238-.01-.48-.01-.73V.43H14.88v8.407h-.01v4.249c0 3.437.409 7.01 3.302 9.019 1.039.71 2.254 1.233 3.616 1.567h.004v-9.96z"/><path fill="#65C6C1" d="M44.461 5.446c1.91 0 3.755.374 5.405 1.055l1.65-5.003C49.867.783 47.213 0 44.009 0c-2.757 0-5.239.582-7.314 1.638v10.614c0-4.05 3.236-6.806 7.767-6.806"/><path fill="#65C2BF" d="M30.19 12.449l-.002-.113c0-.036.002-.071.003-.107v.22"/><path fill="#65C6C1" d="M45.206 18.48c-.518.137-1.036.17-1.651.17-3.916 0-6.861-2.62-6.861-6.398v.493c0 3.437-.375 6.228-2.486 8.338l-.077.073c2.245 1.873 5.329 2.94 8.939 2.94 2.103 0 4.37-.34 6.376-1.021.356-.136.906-.34 1.942-.783v-10.38h-6.182v6.569z"/><path fill="#00B3BE" d="M36.694 12.745V1.637c-3.99 2.03-6.472 5.812-6.503 10.592v.188c.025 3.657 1.477 6.684 3.94 8.739l.077-.073c2.111-2.11 2.486-4.9 2.486-8.338"/></g></svg>
